<svg width="60" height="60" viewBox="0 0 60 60" fill="none" xmlns="http://www.w3.org/2000/svg">
<rect width="60" height="60" rx="12" fill="#252321"/>
<circle cx="30.5" cy="29.5" r="22.5" fill="#F2773D"/>
<path d="M17.8438 19.7968H26.2813" stroke="white" stroke-linecap="round" stroke-linejoin="round"/>
<path d="M22.1748 40.8185L32.3426 37.4288C33.6811 36.9826 34.8453 36.1266 35.6703 34.9819C36.4953 33.8373 36.9393 32.4622 36.9393 31.0512C36.9399 30.1678 36.7664 29.293 36.4286 28.4767C36.0909 27.6604 35.5955 26.9187 34.9709 26.294C34.3463 25.6693 33.6047 25.1739 32.7885 24.836C31.9723 24.4981 31.0975 24.3244 30.2141 24.3248C28.8026 24.3252 27.427 24.7698 26.2823 25.5957C25.1376 26.4215 24.2819 27.5867 23.8364 28.9261L20.4468 39.0938C20.3664 39.3344 20.3547 39.5926 20.413 39.8395C20.4712 40.0863 20.5972 40.3121 20.7768 40.4912C20.9563 40.6704 21.1823 40.796 21.4292 40.8538C21.6762 40.9116 21.9344 40.8994 22.1748 40.8185Z" stroke="white" stroke-linecap="round" stroke-linejoin="round"/>
<path d="M20.7769 40.4888L28.446 32.8197" stroke="white" stroke-linecap="round" stroke-linejoin="round"/>
<path d="M29.9082 33.4261C31.0508 33.4261 31.9771 32.4998 31.9771 31.3572C31.9771 30.2146 31.0508 29.2883 29.9082 29.2883C28.7656 29.2883 27.8394 30.2146 27.8394 31.3572C27.8394 32.4998 28.7656 33.4261 29.9082 33.4261Z" stroke="white" stroke-linecap="round" stroke-linejoin="round"/>
<path d="M32.0381 24.5803L37.2142 18.1093L43.1565 24.0515L36.6855 29.2276" stroke="white" stroke-linecap="round" stroke-linejoin="round"/>
</svg>
