<svg width="60" height="60" viewBox="0 0 60 60" fill="none" xmlns="http://www.w3.org/2000/svg">
<rect width="60" height="60" rx="12" fill="#1E2322"/>
<circle cx="30.5" cy="29.5" r="22.5" fill="#72C67B"/>
<g clip-path="url(#clip0_255_157)">
<path d="M33.875 31.1874V39.0826C33.875 39.4863 33.7955 39.8861 33.6409 40.2591C33.4864 40.632 33.2599 40.9709 32.9744 41.2563C32.6889 41.5417 32.3499 41.7681 31.9769 41.9225C31.6039 42.0769 31.2041 42.1563 30.8004 42.1561H23.4496C23.0459 42.1563 22.6461 42.0769 22.2731 41.9225C21.9001 41.7681 21.5611 41.5417 21.2756 41.2563C20.9901 40.9709 20.7636 40.632 20.6091 40.2591C20.4545 39.8861 20.375 39.4863 20.375 39.0826V21.6058C20.375 20.7903 20.6989 20.0083 21.2755 19.4317C21.8521 18.8551 22.6342 18.5311 23.4496 18.5311H28.8125" stroke="white" stroke-linecap="round" stroke-linejoin="round"/>
<path d="M20.375 37.0936H33.875" stroke="white" stroke-linecap="round" stroke-linejoin="round"/>
<path d="M29.6563 26.9686C31.0542 26.9686 32.1875 25.8353 32.1875 24.4374C32.1875 23.0394 31.0542 21.9061 29.6563 21.9061C28.2583 21.9061 27.125 23.0394 27.125 24.4374C27.125 25.8353 28.2583 26.9686 29.6563 26.9686Z" stroke="white" stroke-linecap="round" stroke-linejoin="round"/>
<path d="M38.0938 30.3436C39.4917 30.3436 40.625 29.2103 40.625 27.8124C40.625 26.4144 39.4917 25.2811 38.0938 25.2811C36.6958 25.2811 35.5625 26.4144 35.5625 27.8124C35.5625 29.2103 36.6958 30.3436 38.0938 30.3436Z" stroke="white" stroke-linecap="round" stroke-linejoin="round"/>
<path d="M38.0938 21.9061C39.4917 21.9061 40.625 20.7728 40.625 19.3749C40.625 17.9769 39.4917 16.8436 38.0938 16.8436C36.6958 16.8436 35.5625 17.9769 35.5625 19.3749C35.5625 20.7728 36.6958 21.9061 38.0938 21.9061Z" stroke="white" stroke-linecap="round" stroke-linejoin="round"/>
<path d="M31.8218 23.1379L35.928 20.6742" stroke="white" stroke-linecap="round" stroke-linejoin="round"/>
<path d="M32.0054 25.3767L35.7449 26.873" stroke="white" stroke-linecap="round" stroke-linejoin="round"/>
</g>
<defs>
<clipPath id="clip0_255_157">
<rect width="27" height="27" fill="white" transform="translate(17 15.9999)"/>
</clipPath>
</defs>
</svg>
