<svg width="60" height="60" viewBox="0 0 60 60" fill="none" xmlns="http://www.w3.org/2000/svg">
<rect width="60" height="60" rx="12" fill="#1B1F2B"/>
<circle cx="30.5" cy="29.5" r="22.5" fill="#3D75FE"/>
<g clip-path="url(#clip0_255_155)">
<path d="M32.2863 42.0335C31.6943 42.1154 31.0974 42.1563 30.4998 42.1561C27.9179 42.1575 25.3972 41.3696 23.2757 39.8981C21.1541 38.4266 19.533 36.3418 18.6296 33.9231C17.7262 31.5044 17.5837 28.8673 18.2211 26.3653C18.8586 23.8633 20.2456 21.616 22.1962 19.9244C24.1468 18.2328 26.5679 17.1779 29.1349 16.9009C31.7019 16.624 34.2923 17.1383 36.5588 18.375C38.8253 19.6116 40.6597 21.5114 41.8161 23.8199C42.9725 26.1284 43.3957 28.7351 43.0289 31.2909" stroke="white" stroke-linecap="round" stroke-linejoin="round"/>
<path d="M27.4498 41.786C25.7375 39.275 24.5923 34.712 24.5923 29.4999C24.5923 24.2877 25.7375 19.7259 27.4498 17.2137" stroke="white" stroke-linecap="round" stroke-linejoin="round"/>
<path d="M17.8706 28.6561H29.655" stroke="white" stroke-linecap="round" stroke-linejoin="round"/>
<path d="M35.561 28.6561H43.1548" stroke="white" stroke-linecap="round" stroke-linejoin="round"/>
<path d="M20.3735 21.9061H40.6247" stroke="white" stroke-linecap="round" stroke-linejoin="round"/>
<path d="M19.3027 35.4061H28.8112" stroke="white" stroke-linecap="round" stroke-linejoin="round"/>
<path d="M33.5483 17.2137C35.0648 19.439 36.1358 23.273 36.3608 27.7426C36.3766 28.0486 36.3882 28.3535 36.3957 28.6572" stroke="white" stroke-linecap="round" stroke-linejoin="round"/>
<path d="M31.9126 31.7409L36.5341 41.8355C36.5908 41.9407 36.6773 42.0267 36.7828 42.0826C36.8883 42.1386 37.0081 42.1621 37.1269 42.15C37.2457 42.138 37.3583 42.091 37.4504 42.015C37.5426 41.939 37.6101 41.8374 37.6445 41.723L38.9945 37.9936L42.7239 36.6436C42.8382 36.6092 42.9399 36.5417 43.0159 36.4496C43.0919 36.3574 43.1389 36.2449 43.1509 36.126C43.1629 36.0072 43.1395 35.8875 43.0835 35.782C43.0275 35.6765 42.9415 35.5899 42.8364 35.5333L32.7418 30.9118C32.6258 30.8631 32.4979 30.8501 32.3745 30.8743C32.2511 30.8986 32.1377 30.959 32.0488 31.0479C31.9599 31.1369 31.8994 31.2503 31.8752 31.3737C31.8509 31.4971 31.864 31.6249 31.9126 31.7409Z" stroke="white" stroke-linecap="round" stroke-linejoin="round"/>
</g>
<defs>
<clipPath id="clip0_255_155">
<rect width="27" height="27" fill="white" transform="translate(17 15.9999)"/>
</clipPath>
</defs>
</svg>
