<?xml version="1.0" encoding="UTF-8"?><svg id="_Слой_1" xmlns="http://www.w3.org/2000/svg" viewBox="0 0 137.14 39.19"><defs><style>.cls-1{fill:#3e96f4;}.cls-2{fill:#0c60ba;}.cls-3{fill:#fff;stroke:#fff;stroke-width:.5px;}</style></defs><path class="cls-1" d="M0,9.8C0,4.39,4.39,0,9.8,0h9.59V39.19H9.8c-5.41,0-9.8-4.39-9.8-9.8V9.8Z"/><path class="cls-2" d="M22.67,0h9.59c5.41,0,9.8,4.39,9.8,9.8v29.39h-9.59c-5.41,0-9.8-4.39-9.8-9.8V0Z"/><path class="cls-3" d="M117.76,30.34c1.14-.69,2.02-1.64,2.64-2.86,.64-1.22,.96-2.6,.96-4.12s-.32-2.9-.96-4.12c-.64-1.22-1.53-2.17-2.67-2.86-1.14-.69-2.43-1.03-3.85-1.03s-2.72,.34-3.86,1.03h0c-1.12,.69-2,1.64-2.64,2.86h0c-.62,1.2-.93,2.57-.93,4.09s.32,2.91,.96,4.15h0c.64,1.22,1.53,2.18,2.67,2.86,1.14,.69,2.43,1.03,3.86,1.03s2.71-.34,3.83-1.03Zm10.27-13.93c-.61,.38-1.14,.87-1.57,1.48v-1.8h-2.61v15.03h2.61v-7.52c0-1.75,.37-3.11,1.07-4.11,.69-.98,1.72-1.48,3.15-1.48,1.24,0,2.12,.35,2.7,1,.59,.66,.9,1.66,.9,3.07v9.04h2.61v-9.97c0-1.14-.27-2.14-.82-2.99-.52-.85-1.24-1.49-2.15-1.92-.89-.43-1.85-.65-2.9-.65-1.12,0-2.12,.27-2.99,.81Zm-61.16,14.3l.06,.16h2.71l-.12-.34-7.73-21.18-.06-.16h-2.52l-.06,.17-7.51,21.18-.12,.33h2.86l.06-.17,1.9-5.76h8.43l2.11,5.77Zm12.9-14.87h-.18l-.06,.17-3.99,11.58-4.05-11.58-.06-.17h-2.74l.12,.34,5.25,14.53,.06,.17h2.68l.06-.16,5.28-14.53,.12-.34h-2.5Zm17.87,.25v-.25h-2.61v1.7c-.53-.61-1.16-1.09-1.87-1.46-.91-.5-1.91-.74-3-.74-1.43,0-2.72,.34-3.86,1.03h0c-1.12,.69-2,1.64-2.64,2.86h0c-.62,1.2-.93,2.57-.93,4.09s.32,2.93,.96,4.15c.64,1.22,1.53,2.17,2.67,2.86,1.14,.69,2.43,1.03,3.86,1.03,1.07,0,2.07-.24,2.97-.71h0c.69-.38,1.31-.87,1.83-1.47v1.68h2.61v-14.78Zm-4.98,12.15h0c-.72,.47-1.55,.71-2.5,.71s-1.75-.24-2.47-.7c-.72-.47-1.3-1.13-1.71-1.98-.42-.85-.63-1.83-.63-2.93s.21-2.04,.63-2.87h0c.42-.85,.99-1.51,1.71-1.98,.72-.47,1.54-.7,2.47-.7s1.78,.24,2.5,.7h0c.74,.47,1.33,1.13,1.74,1.98,.42,.85,.63,1.82,.63,2.9s-.21,2.05-.63,2.9c-.42,.85-1,1.51-1.74,1.98Zm8.53,2.38v.25h2.61V7.83h-2.61V30.62Zm15.18-2.38h0c-.72,.47-1.55,.71-2.5,.71s-1.75-.24-2.47-.7c-.72-.47-1.3-1.13-1.71-1.98-.42-.85-.63-1.83-.63-2.93s.21-2.04,.63-2.87h0c.42-.85,.99-1.51,1.71-1.98,.72-.47,1.54-.7,2.47-.7s1.78,.24,2.5,.7h0c.75,.47,1.33,1.13,1.74,1.98,.42,.85,.63,1.82,.63,2.9s-.21,2.05-.63,2.9c-.41,.85-1,1.51-1.74,1.98ZM60.44,13.23l3.42,9.29h-6.65l3.23-9.29Z"/></svg>